<svg width="20" height="21" viewBox="0 0 20 21" fill="none" xmlns="http://www.w3.org/2000/svg">
<path d="M4 10.895C3.99856 12.3115 4.49829 13.6828 5.41074 14.7662C6.32318 15.8496 7.58951 16.5753 8.98557 16.8147C10.3816 17.0542 11.8174 16.7921 13.0388 16.0747C14.2601 15.3573 15.1883 14.231 15.659 12.895H10V8.89502H19.805V12.895H19.8C18.873 17.459 14.838 20.895 10 20.895C4.477 20.895 0 16.418 0 10.895C0 5.37202 4.477 0.895022 10 0.895022C11.6345 0.893858 13.2444 1.29377 14.6883 2.05969C16.1323 2.8256 17.3662 3.93412 18.282 5.28802L15.004 7.58302C14.2924 6.50743 13.2532 5.68975 12.0404 5.25119C10.8275 4.81262 9.50569 4.77651 8.27074 5.1482C7.03579 5.5199 5.95347 6.27962 5.18421 7.31476C4.41495 8.34989 3.9997 9.60535 4 10.895Z" fill="#F85F5F"/>
</svg>
